<?xml version="1.0" standalone="no"?><!DOCTYPE svg PUBLIC "-//W3C//DTD SVG 1.1//EN" "http://www.w3.org/Graphics/SVG/1.1/DTD/svg11.dtd"><svg t="1642734892340" class="icon" viewBox="0 0 1024 1024" version="1.1" xmlns="http://www.w3.org/2000/svg" p-id="5462" xmlns:xlink="http://www.w3.org/1999/xlink" width="256" height="256"><defs><style type="text/css"></style></defs><path d="M512 511.2m-448.3 0a448.3 448.3 0 1 0 896.6 0 448.3 448.3 0 1 0-896.6 0Z" fill="#A6DBFF" p-id="5463"></path><path d="M719.7 722.6s34.5-59.9 3.6-81.6c-31.5-22.4-18.8-20-26.7-44.8-15.8-38.1-61.2-46-61.2-46s-54.5-3.6-100 0c-45.4 3.6-124.8 36.9-124.8 36.9s-98.2 72-13.9 108.9c41.2 36.9 68.5 76.8 68.5 76.8S634.9 644 696.7 678.5l23 44.1z" fill="#91D5FF" p-id="5464"></path><path d="M630.3 324.4s-10.3 8.5-374.5 145.7c-40.5 90.7 165.8 93.7 165.8 93.7l-6.7 90.7 58 80.8c39.3-42.2 72.6-73.3 100.1-93.4 27.4-20.1 56.9-35 88.5-44.8l-59.6-170c14.5-12.7 23-22.5 25.4-29.6 12.6-37.2 3-73.1 3-73.1zM437.3 810.1h112.1l-18 186.8H456z" fill="#FFFFFF" p-id="5465"></path><path d="M754.5 744.7c3.3 0.2 6.5-1.4 8.4-4.3 2.6-4 6.3-10.8 10-19.2 4.9-11.2 8.3-22.3 9.6-32.9 2.3-19.7-3-36.2-18-46.8-14.3-10.3-19.4-15.3-20.8-19.1-0.4-1.2-0.7-2.4-1-5.4-1.1-8.9-1.8-12.8-4.2-20.4-7.1-17.8-19.3-31.2-35.2-41.2-8.7-5.5-18-9.6-27.3-12.6-5.6-1.8-10-2.9-12.7-3.3-3.2-0.5-6.2 0.6-8.3 2.7l-21.5-107.4c-1-5.1-5.9-8.3-11-7.3-5.1 1-8.3 5.9-7.3 11l28.2 141.1c-16.5 4.2-34.4 13-53.8 25.7-19.4 12.8-39.9 29.2-60.9 48.6-18 16.6-35.4 34.3-51.6 52-4.9 5.4-9.2 10.2-12.7 14.2l-44-66.3 5.9-84.7c0.4-5.3-3.8-9.9-9.2-10-5-0.1-13.9-0.5-25.3-1.5-19.1-1.6-38.2-4.3-55.9-8.4-57.7-13.1-85-35.2-72.9-69.1 152.7-60.4 253-100.9 311.1-125.3 18.4-7.7 30.8-13 38.8-16.7 2.1 13.3 2.6 27.1 0.9 39.8-5.4 38.8-29.7 56-85.9 42.1-5-1.2-10.1 1.8-11.3 6.8-1.2 5 1.8 10.1 6.8 11.3 67.1 16.6 102-8.1 108.9-57.7 2.1-15.1 1.4-31.1-1.1-46.4-0.9-5.4-1.8-9.6-2.4-11.9-1.7-6.7-9.9-9.3-15.1-4.7 0.6-0.5-1 0.3-4.9 2.1-8 3.7-21.5 9.6-41.9 18.1-9.8 4.1-20.9 8.7-33.2 13.8 8.5-14.8 15-31 19.6-48.6 2.8-10.9 4.9-21.9 6.3-33l0.2-0.2c3.9-4.3 7.4-8.7 10.7-13.3 21.6-30 28.7-60.1 28.6-81.4v-0.1c-0.1-6.8-5.6-12.2-12.4-12.1-6.7 0.1-12.2 5.6-12.1 12.4 0 4.1-0.7 11.5-2.9 20.9-2.2 9.3-5.5 18.6-10 27.7-0.3-11.5-1.3-22.8-2.7-33.9-1.1-8.1-2.1-14.1-2.9-17.5-1.4-6.6-8-10.8-14.6-9.3-6.6 1.4-10.8 8-9.3 14.6 0.6 2.7 1.5 8 2.5 15.4 2.8 21.2 3.5 43.5 1.5 65.6-10.8 9.7-26.3 18.8-45.5 26.9 0.1-9.4-0.2-18.8-0.9-27.8-0.3-4.4-0.7-7.6-0.9-9.5-0.8-6.7-7-11.4-13.7-10.6-6.7 0.8-11.4 7-10.6 13.7 0.2 1.5 0.5 4.3 0.8 8.3 0.9 11.5 1.1 23.5 0.5 35.4-13.9 4.7-28.4 8.8-42.9 12.2-11.3 2.7-20.1 4.4-25 5.2-6.7 1.1-11.2 7.4-10 14.1 1.1 6.7 7.4 11.2 14.1 10 5.4-0.9 14.7-2.7 26.7-5.6 11.5-2.7 22.9-5.8 34.1-9.3 0 0.2-0.1 0.3-0.1 0.5-1.3 6.6 3.1 13 9.7 14.3 6.6 1.3 13-3.1 14.3-9.7 0.5-2.3 0.9-4.7 1.2-7.2 0.4-2.3 0.7-4.6 0.9-7 15.7-6 29.7-12.6 41.7-19.8-0.3 1.3-0.6 2.6-1 3.9-5.7 21.9-14.7 41.3-27.2 57.7-2.4 3.2-3.1 7.1-2.1 10.7-59.4 24.2-140.9 56.8-248 99.1l-5.2 5c-21.8 51 15 82.4 84.5 98.2 18.7 4.2 38.5 7 58.4 8.8 5.7 0.5 10.8 0.8 15.2 1.1-0.9 0.3-1.7 0.8-2.5 1.4-1.6 1.2-4.3 3.5-7.7 6.5-5.6 5.1-11.3 10.7-16.6 16.7-14.2 16.2-23.4 32.5-25 48.7-2 19.9 7.8 36.9 29.8 49.4-3.6 3.4-7.6 7.6-12 12.6-16.9 19-33.6 44-49.2 75.7-15.1 30.7-28.3 66.1-39.1 106.8-0.2 0.8-0.4 1.5-0.6 2.2 5.6 3.3 11.2 6.5 16.9 9.6 0.5-2.3 1-4.7 1.7-7.1 10.5-39.4 23.3-73.8 37.8-103.3 14.8-30.2 30.7-53.8 46.4-71.5 5.1-5.7 9.5-10.1 13-13.4 14.9 16.1 28.7 32 39.8 46.2 7.7 9.8 12.4 16.6 14.5 20 3.1 4.9 9.8 5.9 14.1 2.1 3.6-3.2 10.4-8.9 19.6-16.3 15.4-12.3 32.1-24.6 49.4-36 22.2-14.7 43.7-26.9 63.8-35.8 41.3-18.2 73.5-21.1 93.8-6.3 3.5 2.5 8.1 2.3 11.3-0.2 8.3 14.8 16.5 30.8 24.2 47.5 12.1 26.3 21.7 51.9 27.9 75.9 7.6 29.7 9.6 55.1 5.3 75.5 7.1-4.8 14-9.7 20.8-14.8 1-19.4-1.8-41.3-8-65.3-4.7-19-11.6-38.9-20.1-59.3z m-8.7-19.8c-8-17.5-16.7-34.2-25.3-49.5-5.2-9.2-9.2-16-11.6-19.7-2.8-4.4-8.5-5.7-12.9-2.9-3.6 2.3-5.1 6.6-4 10.5-26-11.4-60-6.4-100.1 11.3-21.2 9.4-43.6 22.1-66.6 37.3-17.8 11.8-34.9 24.4-50.7 37-4.8 3.8-8.9 7.2-12.4 10-2.5-3.5-5.7-7.8-9.6-12.7-11.7-15-26.2-31.6-43.6-49.7-0.2-1.3-0.7-2.5-1.5-3.6-1.4-2.1-3.6-3.5-6-3.9-23.4-11.5-31-22.9-29.6-36.5 1.2-11.5 8.6-24.7 20.5-38.3 4.3-4.9 8.7-9.3 12.6-13l-2.1 30.1c-2.7-0.9-5.7-0.7-8.2 1-4.3 2.9-5.5 8.6-2.6 12.9l8.9 13.5v1.3c-0.3 4.7 2.9 8.9 7.5 9.8l46.9 70.7c3.5 5.2 11 5.6 15 0.8 3.8-4.6 10.7-12.6 20.3-23 15.9-17.3 32.9-34.7 50.5-50.8 20.3-18.7 40-34.6 58.5-46.7 17.4-11.4 33.3-19.2 47.2-23l5.5 27.3c1 5.1 5.9 8.3 11 7.3s8.3-5.9 7.3-11l-5.4-27c3.4-1.5 5.8-5 5.6-9-0.2-4.9-4.3-8.8-9.1-8.9l-3.9-19.5c0.7 0.3 1.4 0.5 2.1 0.6 1.9 0.3 5.4 1.2 10.1 2.7 7.9 2.6 15.8 6.1 23.1 10.7 12.8 8.1 22.3 18.5 27.6 31.8 1.8 5.6 2.3 8.4 3.3 16.2 0.5 4.4 1 6.8 2.1 9.8 3.2 8.3 10.2 15.2 27.4 27.6 8.8 6.2 11.9 16 10.3 29.4-1 8.6-3.9 18-8.1 27.6-2.9 6.7-5.9 12.2-7.9 15.6-0.8-1.2-1.4-2.6-2.1-4.1z" fill="#2150B7" p-id="5466"></path><path d="M596.5 948c0.9-18.2-6.5-37.7-24.5-53.6l-0.9-0.7-2.8-1.9c3.3-3.2 7.5-6 12.6-8 9.9-4 21.5-7.8 34.3-11.6 12.5-3.7 25.6-7.1 39-10.3l0.9 23.3c0.2 5.2 4.6 9.2 9.7 9 5.2-0.2 9.2-4.6 9-9.7l-1.1-26.7c6.9-1.5 12.4-2.6 15.8-3.2 5.1-1 8.4-5.8 7.5-10.9-1-5.1-5.8-8.4-10.9-7.5-3 0.6-7.5 1.5-13.1 2.7l-1.2-29c-0.2-5.2-4.6-9.2-9.7-9-5.2 0.2-9.2 4.6-9 9.7l1.3 32.4c-14.8 3.5-29.6 7.2-43.5 11.3-13.4 3.9-25.5 8-35.9 12.2-9 3.5-16.1 8.6-21.5 14.7l-0.5-0.4 6.7-69.7c0.5-5.5-3.8-10.2-9.3-10.2H437.3c-5.5 0-9.8 4.8-9.3 10.3l11.1 111.2c-6.4-15-16.5-27.4-28.8-35.6l2.3-76.3c0.2-5.2-3.9-9.5-9.1-9.6s-9.5 3.9-9.6 9.1l-2 68.1c-14.3-4.1-65.5 20.9-70.4 33.4-0.7 1.9-1.4 3.7-2 5.6 43.8 20.9 91.6 34.8 141.9 40.5l-13.8-138h91.5l-5.9 60.7c-1.3 2.1-1.7 4.8-0.7 7.6l-1 10.8c-0.2 0.3-0.3 0.6-0.5 0.9-4.6 7.5-16.5 13.1-39.2 14.6-22.5 1.2-30.5 22.3-25.5 43.9 6.5 0.7 13 1.2 19.5 1.5-5-13.1-2.4-26.2 7.1-26.7 14.9-1 26.8-3.8 36-8.1l-3.4 35.4c6.3-0.2 12.6-0.5 18.9-1l2-20.9c4.2 7.5 10.6 14 18.9 18.9 14.9-1.8 29.5-4.3 43.9-7.4-4.4-0.5-8.7-1.1-12.7-1.8z m-21.6-6.9c-12.7-7.2-18-20.5-15.6-32.9l0.8 0.6c11.4 10.2 16.9 22.2 17.6 33.7-1-0.4-2-0.9-2.8-1.4zM418.6 436.5c-10.3 0-18.7 8.4-18.7 18.7 0 10.3 8.4 18.7 18.7 18.7 10.3 0 18.7-8.4 18.7-18.7 0-11.2-8.4-18.7-18.7-18.7z" fill="#2150B7" p-id="5467"></path><path d="M337.5 923.5s32-33.5 52-25.5 47.5 50.8 47.8 53.5c0.3 2.7-61.6-11.2-99.8-28zM485.8 959.6s-17-31.1 36.7-33.6 31.5-27 31.5-27 38.3 22.8 24.5 55c-2.4 5.6-92.7 5.6-92.7 5.6z" fill="#FFFFFF" p-id="5468"></path></svg>